<svg id="SvgjsSvg1000" xmlns="http://www.w3.org/2000/svg" version="1.1" xmlns:xlink="http://www.w3.org/1999/xlink" xmlns:svgjs="http://svgjs.com/svgjs" width="17" height="17" viewBox="0 0 17 17"><title>Forma 1</title><desc>Created with Avocode.</desc><defs id="SvgjsDefs1001"></defs><path id="SvgjsPath1007" d="M278.487 382.893L278.487 384.94899999999996C278.487 385.87899999999996 277.716 386.62799999999993 276.76500000000004 386.62799999999993L275.67900000000003 386.62799999999993C274.72900000000004 386.62799999999993 273.947 385.8789999999999 273.947 384.94899999999996L273.947 382.88499999999993L269.052 382.88499999999993L269.052 384.94899999999996C269.052 385.87899999999996 268.271 386.62799999999993 267.321 386.62799999999993L266.235 386.62799999999993C265.284 386.62799999999993 264.51300000000003 385.8789999999999 264.51300000000003 384.94899999999996L264.51300000000003 382.893C263.68300000000005 382.917 263.00000000000006 383.589 263.00000000000006 384.416L263.00000000000006 396.467C263.00000000000006 397.30899999999997 263.69800000000004 398 264.55800000000005 398L278.44200000000006 398C279.30100000000004 398 280.00000000000006 397.307 280.00000000000006 396.467L280.00000000000006 384.416C280.00000000000006 383.589 279.31700000000006 382.917 278.4870000000001 382.893ZM277.309 396.375L265.66200000000003 396.375C265.28900000000004 396.375 264.98800000000006 396.08 264.98800000000006 395.717L264.98800000000006 389.49199999999996C264.98800000000006 389.128 265.28900000000004 388.83299999999997 265.66200000000003 388.83299999999997L277.309 388.83299999999997C277.68100000000004 388.83299999999997 277.982 389.128 277.982 389.49199999999996L277.982 395.717C277.982 396.08 277.68100000000004 396.375 277.309 396.375ZM266.231 385.525L267.305 385.525C267.63100000000003 385.525 267.895 385.267 267.895 384.948L267.895 381.577C267.895 381.258 267.631 381 267.305 381L266.231 381C265.905 381 265.64 381.258 265.64 381.577L265.64 384.948C265.64 385.267 265.905 385.525 266.231 385.525ZM276.025 390.379C276.025 390.166 275.84799999999996 389.993 275.63 389.993L274.253 389.993C274.03499999999997 389.993 273.858 390.166 273.858 390.379L273.858 391.725C273.858 391.93800000000005 274.035 392.11100000000005 274.253 392.11100000000005L275.63 392.11100000000005C275.848 392.11100000000005 276.025 391.93800000000005 276.025 391.725ZM272.583 390.379C272.583 390.166 272.406 389.993 272.189 389.993L270.81100000000004 389.993C270.59400000000005 389.993 270.41700000000003 390.166 270.41700000000003 390.379L270.41700000000003 391.725C270.41700000000003 391.93800000000005 270.59400000000005 392.11100000000005 270.81100000000004 392.11100000000005L272.189 392.11100000000005C272.406 392.11100000000005 272.583 391.93800000000005 272.583 391.725ZM268.747 389.993L267.37 389.993C267.152 389.993 266.975 390.166 266.975 390.379L266.975 391.725C266.975 391.93800000000005 267.15200000000004 392.11100000000005 267.37 392.11100000000005L268.747 392.11100000000005C268.96500000000003 392.11100000000005 269.141 391.93800000000005 269.141 391.725L269.141 390.379C269.141 390.166 268.96500000000003 389.993 268.747 389.993ZM275.63 393.359L274.253 393.359C274.03499999999997 393.359 273.858 393.531 273.858 393.74399999999997L273.858 395.09C273.858 395.303 274.035 395.476 274.253 395.476L275.63 395.476C275.848 395.476 276.025 395.303 276.025 395.09L276.025 393.74399999999997C276.025 393.53099999999995 275.84799999999996 393.359 275.63 393.359ZM272.583 393.744C272.583 393.531 272.406 393.35900000000004 272.189 393.35900000000004L270.81100000000004 393.35900000000004C270.59400000000005 393.35900000000004 270.41700000000003 393.53100000000006 270.41700000000003 393.744L270.41700000000003 395.09000000000003C270.41700000000003 395.30300000000005 270.59400000000005 395.47600000000006 270.81100000000004 395.47600000000006L272.189 395.47600000000006C272.406 395.47600000000006 272.583 395.30300000000005 272.583 395.09000000000003ZM268.747 393.359L267.37 393.359C267.152 393.359 266.975 393.531 266.975 393.74399999999997L266.975 395.09C266.975 395.303 267.15200000000004 395.476 267.37 395.476L268.747 395.476C268.96500000000003 395.476 269.141 395.303 269.141 395.09L269.141 393.74399999999997C269.141 393.53099999999995 268.96500000000003 393.359 268.747 393.359ZM275.665 385.525L276.74 385.525C277.065 385.525 277.33 385.267 277.33 384.948L277.33 381.577C277.33 381.258 277.065 381 276.74 381L275.665 381C275.339 381 275.07500000000005 381.258 275.07500000000005 381.577L275.07500000000005 384.948C275.07500000000005 385.267 275.33900000000006 385.525 275.665 385.525Z " fill="#c5c5c5" fill-opacity="1" transform="matrix(1,0,0,1,-263,-381)"></path></svg>