<svg id="SvgjsSvg1008" xmlns="http://www.w3.org/2000/svg" version="1.1" xmlns:xlink="http://www.w3.org/1999/xlink" xmlns:svgjs="http://svgjs.com/svgjs" width="24" height="32" viewBox="0 0 24 32"><title>Forma 1 copy</title><desc>Created with Avocode.</desc><defs id="SvgjsDefs1009"></defs><path id="SvgjsPath1010" d="M534.74 194.934L526.445 188.003C525.7620000000001 187.43099999999998 524.566 187 523.663 187L514.113 187C512.9480000000001 187 512 187.949 512 189.115C512.001 189.395 512.015 217.05 512.015 217.195C512.015 218.25199999999998 512.742 218.98999999999998 513.783 218.98999999999998C514.443 218.98999999999998 533.951 218.99999999999997 533.951 218.99999999999997C535.081 218.99999999999997 536 218.03999999999996 536 216.85999999999999L536 197.70999999999998C536 196.72799999999998 535.458 195.534 534.74 194.93399999999997ZM529.352 208.112L524.578 215.04C524.442 215.238 524.237 215.351 524.016 215.351C523.795 215.351 523.5899999999999 215.238 523.453 215.04L518.68 208.113C518.5319999999999 207.898 518.506 207.657 518.611 207.453C518.716 207.248 518.933 207.136 519.191 207.136L522.005 207.136L522.005 200.268C522.005 199.824 522.364 199.439 522.801 199.439L525.2320000000001 199.439C525.6690000000001 199.439 526.0540000000001 199.82399999999998 526.0540000000001 200.268L526.0540000000001 207.136L528.8410000000001 207.136C529.0990000000002 207.136 529.3160000000001 207.248 529.4210000000002 207.452C529.5250000000002 207.657 529.5000000000001 207.897 529.3520000000002 208.112ZM526.396 197.113C525.098 197.113 524.997 195.987 524.997 195.642L524.997 189.771L534.1049999999999 197.113Z " fill="#50b3ff" fill-opacity="1" transform="matrix(1,0,0,1,-512,-187)"></path></svg>