<svg id="SvgjsSvg1008" xmlns="http://www.w3.org/2000/svg" version="1.1" xmlns:xlink="http://www.w3.org/1999/xlink" xmlns:svgjs="http://svgjs.com/svgjs" width="26" height="38" viewBox="0 0 26 38"><title>Forma 1</title><desc>Created with Avocode.</desc><defs id="SvgjsDefs1009"></defs><path id="SvgjsPath1010" d="M244.386 166.458C244.251 165.951 243.97899999999998 165.411 243.777 164.938C241.362 159.094 236.08499999999998 157 231.82399999999998 157C226.12099999999998 157 219.839 160.851 218.99999999999997 168.788L218.99999999999997 170.41000000000003C218.99999999999997 170.47700000000003 219.02299999999997 171.08500000000004 219.05599999999998 171.39000000000001C219.52599999999998 175.17200000000003 222.49099999999999 179.192 224.70499999999998 182.97500000000002C227.087 187.02800000000002 229.559 191.01500000000001 232.00799999999998 195.00000000000003C233.51699999999997 192.39900000000003 235.022 189.76500000000001 236.49699999999999 187.23100000000002C236.89999999999998 186.48800000000003 237.36599999999999 185.74500000000003 237.76899999999998 185.03500000000003C238.03699999999998 184.56300000000002 238.54999999999998 184.09000000000003 238.78399999999996 183.65100000000004C241.16599999999997 179.26000000000005 244.99999999999997 174.83500000000004 244.99999999999997 170.47700000000003L244.99999999999997 168.68700000000004C244.99999999999997 168.21500000000003 244.41899999999998 166.56000000000003 244.38599999999997 166.45800000000003ZM231.929 174.598C230.252 174.598 228.417 173.75400000000002 227.511 171.423C227.376 171.052 227.387 170.309 227.387 170.241L227.387 169.193C227.387 166.222 229.893 164.87 232.073 164.87C234.757 164.87 236.833 167.032 236.833 169.735C236.833 172.437 234.613 174.598 231.929 174.598Z " fill="#f2b626" fill-opacity="1" transform="matrix(1,0,0,1,-219,-157)"></path></svg>