<svg id="SvgjsSvg1000" xmlns="http://www.w3.org/2000/svg" version="1.1" xmlns:xlink="http://www.w3.org/1999/xlink" xmlns:svgjs="http://svgjs.com/svgjs" width="20" height="20" viewBox="0 0 20 20"><title>Forma 1</title><desc>Created with Avocode.</desc><defs id="SvgjsDefs1001"></defs><path id="SvgjsPath1007" d="M848.682 46.1662C845.783 43.267100000000006 841.064 43.267100000000006 838.165 46.1662C835.2669999999999 49.0658 835.2669999999999 53.782900000000005 838.165 56.682500000000005C840.747 59.26350000000001 844.7679999999999 59.53960000000001 847.665 57.52440000000001C847.726 57.81280000000001 847.866 58.087700000000005 848.0899999999999 58.31230000000001L852.3119999999999 62.53300000000001C852.9259999999999 63.14730000000001 853.9199999999998 63.14730000000001 854.5329999999999 62.53300000000001C855.1469999999999 61.91940000000001 855.1469999999999 60.92520000000001 854.5329999999999 60.311600000000006L850.3109999999999 56.089600000000004C850.088 55.866200000000006 849.8119999999999 55.7263 849.5239999999999 55.66630000000001C851.5399999999998 52.7683 851.2639999999999 48.749100000000006 848.6819999999999 46.1662ZM847.349 55.3496C845.1840000000001 57.5133 841.662 57.5133 839.498 55.3496C837.335 53.1852 837.335 49.664100000000005 839.498 47.499700000000004C841.662 45.3357 845.1840000000001 45.3357 847.349 47.499700000000004C849.513 49.664100000000005 849.513 53.1852 847.349 55.3496Z " fill="#ffffff" fill-opacity="1" transform="matrix(1,0,0,1,-835,-43)"></path></svg>