<svg id="SvgjsSvg1000" xmlns="http://www.w3.org/2000/svg" version="1.1" xmlns:xlink="http://www.w3.org/1999/xlink" xmlns:svgjs="http://svgjs.com/svgjs" width="49" height="49" viewBox="0 0 49 49"><title>Ellipse 5</title><desc>Created with Avocode.</desc><defs id="SvgjsDefs1001"></defs><path id="SvgjsPath1007" d="M1854.5 149C1868.03 149 1879 159.969 1879 173.5C1879 187.031 1868.03 198 1854.5 198C1840.97 198 1830 187.031 1830 173.5C1830 159.969 1840.97 149 1854.5 149Z " fill="#eeeeee" fill-opacity="1" transform="matrix(1,0,0,1,-1830,-149)"></path><path id="SvgjsPath1008" d="M1856.51 173.492L1862.57 167.43599999999998C1863.12 166.879 1863.12 165.97499999999997 1862.57 165.41799999999998C1862.01 164.85999999999999 1861.1 164.85999999999999 1860.55 165.41799999999998L1854.49 171.47299999999998L1848.44 165.41799999999998C1847.88 164.85999999999999 1846.98 164.85999999999999 1846.42 165.41799999999998C1845.8600000000001 165.97499999999997 1845.8600000000001 166.879 1846.42 167.43599999999998L1852.47 173.49099999999999L1846.42 179.547C1845.8600000000001 180.10399999999998 1845.8600000000001 181.008 1846.42 181.565C1846.98 182.123 1847.88 182.123 1848.44 181.565L1854.49 175.51L1860.55 181.565C1861.1 182.123 1862.01 182.123 1862.57 181.565C1863.12 181.008 1863.12 180.10399999999998 1862.57 179.547Z " fill="#595959" fill-opacity="1" transform="matrix(1,0,0,1,-1830,-149)"></path></svg>